<?xml version="1.0" encoding="UTF-8"?> <!-- Generator: Adobe Illustrator 25.0.1, SVG Export Plug-In . SVG Version: 6.00 Build 0) --> <svg xmlns="http://www.w3.org/2000/svg" xmlns:xlink="http://www.w3.org/1999/xlink" version="1.1" id="Layer_1" x="0px" y="0px" viewBox="0 0 292.3 207.3" style="enable-background:new 0 0 292.3 207.3;" xml:space="preserve"> <style type="text/css"> .st0{fill:#00273F;} .st1{fill:#D2E8FF;} .st2{fill:#014375;} .st3{fill:#FFFFFF;} .st4{fill:#FED95F;} .st5{fill:#54B7EC;} .st6{fill:#08AC6A;} .st7{fill:none;stroke:#FFFFFF;stroke-miterlimit:10;} .st8{opacity:0.2;fill:url(#SVGID_1_);} .st9{opacity:0.7;fill:#54B7EC;} .st10{opacity:0.2;fill:none;stroke:#54B7EC;stroke-miterlimit:10;} .st11{clip-path:url(#SVGID_3_);} .st12{fill:none;stroke:#54B7EC;stroke-miterlimit:10;} </style> <rect x="123.4" y="150.3" class="st0" width="32.9" height="20.9"></rect> <rect x="206.9" y="174.1" class="st1" width="12.1" height="30.3"></rect> <rect x="68.8" y="70.1" class="st2" width="142" height="84.4"></rect> <rect x="75.7" y="77.4" class="st1" width="128.3" height="69.7"></rect> <rect x="115.5" y="166.1" class="st2" width="48.7" height="5.2"></rect> <rect x="91.1" y="10.6" class="st3" width="97.4" height="136.5"></rect> <g> <path class="st4" d="M91.1,18.4c0,0,0-3.5,0-7.8s4.5-7.8,10-7.8h77.4c5.5,0,10,3.5,10,7.8s0,7.8,0,7.8"></path> </g> <g> <g> <rect x="157.2" y="8.8" class="st3" width="4.9" height="4.9"></rect> <rect x="165.8" y="8.8" class="st3" width="4.9" height="4.9"></rect> <rect x="174.4" y="8.8" class="st3" width="4.9" height="4.9"></rect> </g> </g> <rect x="96.3" y="131.5" class="st5" width="87" height="9.7"></rect> <rect x="96.3" y="75.3" class="st1" width="25.7" height="21"></rect> <rect x="127" y="75.3" class="st1" width="25.7" height="21"></rect> <rect x="157.6" y="75.3" class="st1" width="25.7" height="21"></rect> <rect x="96.3" y="98.5" class="st1" width="25.7" height="2"></rect> <rect x="127" y="98.5" class="st1" width="25.7" height="2"></rect> <rect x="157.6" y="98.5" class="st1" width="25.7" height="2"></rect> <rect x="96.3" y="102.6" class="st1" width="25.7" height="2"></rect> <rect x="127" y="102.6" class="st1" width="25.7" height="2"></rect> <rect x="157.6" y="102.6" class="st1" width="25.7" height="2"></rect> <rect x="96.3" y="106.7" class="st1" width="12.9" height="2"></rect> <rect x="96.3" y="115.7" class="st1" width="87" height="2"></rect> <rect x="96.3" y="119.9" class="st1" width="87" height="2"></rect> <rect x="96.3" y="124" class="st1" width="43.5" height="2"></rect> <rect x="127" y="106.7" class="st1" width="12.9" height="2"></rect> <rect x="157.6" y="106.7" class="st1" width="12.9" height="2"></rect> <rect x="164.9" y="133.9" class="st3" width="15.2" height="4.9"></rect> <polygon class="st6" points="81.5,171.2 64.1,171.2 60.5,142.9 85,142.9 "></polygon> <polygon class="st3" points="85,138.8 85,134.6 60.5,134.6 60.5,138.8 58.5,138.8 58.5,142.9 87,142.9 87,138.8 "></polygon> <g> <path class="st0" d="M75.3,154.6c2,2,2.6,4.8,1.2,6.2c-1.4,1.4-4.2,0.8-6.2-1.2c-2-2-2.6-4.8-1.2-6.2 C70.5,152,73.2,152.5,75.3,154.6z"></path> <line class="st7" x1="70.4" y1="154.7" x2="75.2" y2="159.5"></line> </g> <g> <g> <rect x="96.4" y="23.4" class="st5" width="87" height="44.5"></rect> <linearGradient id="SVGID_1_" gradientUnits="userSpaceOnUse" x1="139.9036" y1="67.9556" x2="139.9036" y2="23.4217"> <stop offset="0" style="stop-color:#014375"></stop> <stop offset="0.9946" style="stop-color:#014375;stop-opacity:0"></stop> </linearGradient> <rect x="96.4" y="23.4" class="st8" width="87" height="44.5"></rect> </g> <g> <polygon class="st9" points="96.4,58.5 106.4,52.8 118.1,59.6 127.7,54.7 127.7,68 96.4,68 "></polygon> </g> <g> <polygon class="st9" points="145.3,58.5 157.6,49.4 173.7,59.6 183.3,54.7 183.3,68 145.3,68 "></polygon> </g> <path class="st5" d="M123.2,68c0-13,7.5-23.6,16.7-23.6c9.2,0,16.7,10.5,16.7,23.6"></path> <path class="st2" d="M132.2,68c0-6.4,3.4-11.5,7.7-11.5c4.2,0,7.7,5.2,7.7,11.5H132.2z"></path> <line class="st10" x1="139.9" y1="52.8" x2="139.9" y2="68"></line> <g> <defs> <rect id="SVGID_2_" x="96.4" y="23.4" width="87" height="44.5"></rect> </defs> <clipPath id="SVGID_3_"> <use xlink:href="#SVGID_2_" style="overflow:visible;"></use> </clipPath> <g class="st11"> <line class="st12" x1="127.4" y1="54.4" x2="113.3" y2="69.4"></line> <line class="st12" x1="152.4" y1="54.4" x2="166.5" y2="69.4"></line> </g> </g> <path class="st3" d="M119,36.8c0,2.7-2.2,4.9-4.9,4.9c-2.7,0-4.9-2.2-4.9-4.9c0-2.7,2.2-4.9,4.9-4.9C116.8,31.9,119,34.1,119,36.8z "></path> </g> <rect x="62.6" y="174.1" class="st1" width="12.1" height="30.3"></rect> <rect x="34" y="171.2" class="st1" width="209.3" height="2.9"></rect> </svg> 